<svg width="100" height="100" xmlns="http://www.w3.org/2000/svg">
 <g>
  <title>Avion</title>
  <path fill="#F4B6FF" d="m50.04495,82.12712c-0.73294,0 -1.38503,-0.28783 -1.93522,-0.80994c-0.54973,-0.52167 -1.00443,-1.26919 -1.38281,-2.20276c-0.75665,-1.86687 -1.22209,-4.48941 -1.47668,-7.63013c-0.25409,-3.13468 -0.29691,-6.78473 -0.19135,-10.69204c-9.05358,-3.55319 -27.41594,-10.88958 -28.89101,-12.52764c-1.96388,-2.18089 -1.32936,-4.68032 -0.53796,-6.33954l30.18716,5.8778c0.63809,-7.65978 1.54536,-15.24638 2.33597,-21.19107c-2.95212,-0.82654 -8.46277,-2.45859 -9.60024,-3.47064c-1.56696,-1.39419 -1.56695,-5.89669 -1.56695,-5.89669l12.35504,0.96132c0.29099,-1.9408 0.47297,-3.07325 0.47297,-3.07325l0.01805,-0.10219l0.09749,0l0.22745,0l0.09748,0l0.01805,0.10219c0,0 0.18163,1.13247 0.47296,3.07325l12.35865,-0.96132c0,0 0.00001,4.5025 -1.56695,5.89669c-1.13789,1.01245 -6.65257,2.64819 -9.60385,3.47445c0.78898,5.92644 1.69465,13.48402 2.33236,21.11912l29.83335,-5.80965c0.79138,1.65922 1.42954,4.15864 -0.53435,6.33954c-1.45682,1.61779 -19.37547,8.791 -28.54079,12.3914c0.10951,3.95795 0.06926,7.65774 -0.18775,10.82828l0,0.00757c-0.25472,3.13726 -0.72066,5.75724 -1.47668,7.62256c-0.37827,0.93331 -0.82927,1.6809 -1.3792,2.20276c-0.5502,0.5221 -1.20228,0.80994 -1.93521,0.80994l-0.00001,0l0.00003,-0.00001z" id="svg_3" stroke="#000"/>
 </g>

</svg>